# xmcd
#
# Track frame offsets:
#	150
#	16787
#	33877
#	50510
#	69498
#	87461
#	103417
#	122175
#	137271
#	152948
#	169711
#
# Disc length: 2524 seconds
#
# Revision: 1
# Processed by: cddbd v1.4PL0 Copyright (c) Steve Scherf et al.
# Submitted via: audiograbber 1.82.01
#
DISCID=8d09da0b
DTITLE=Palmenia Pizarro - Para que se Escuche Bonito¡¡¡
DYEAR=2002
DGENRE=Ballad
TTITLE0=cuando llora mi guitarra
TTITLE1=la joya del pacifico
TTITLE2=engañada - odiame
TTITLE3=dos años - debemos separarnos
TTITLE4=reminiscencia
TTITLE5=a mi esposo
TTITLE6=cariño malo
TTITLE7=olvidarte de mi
TTITLE8=regresa
TTITLE9=milagro
TTITLE10=medley a chabuca
EXTD=
EXTT0=
EXTT1=
EXTT2=
EXTT3=
EXTT4=
EXTT5=
EXTT6=
EXTT7=
EXTT8=
EXTT9=
EXTT10=
PLAYORDER=
